<svg xmlns="http://www.w3.org/2000/svg" viewBox="0 0 400 120">
  <rect width="400" height="120" fill="#ffffff"/>
  <!-- Horse Knight Chess Piece -->
  <g transform="translate(20, 10)">
    <path d="M45 95 L45 85 L15 85 L15 95 Z" fill="#1e3a5f"/>
    <rect x="15" y="78" width="30" height="7" fill="#f37021"/>
    <path d="M20 78 C20 50, 25 35, 35 25 C40 20, 45 18, 48 20 C52 22, 50 28, 48 32 C55 28, 60 30, 58 38 C56 45, 50 48, 45 50 L45 78 L20 78 Z" fill="none" stroke="#1e3a5f" stroke-width="3"/>
    <circle cx="32" cy="40" r="2" fill="#1e3a5f"/>
    <path d="M25 55 C28 52, 32 52, 35 55" fill="none" stroke="#1e3a5f" stroke-width="2"/>
  </g>
  <!-- Springer Text -->
  <text x="90" y="70" font-family="Georgia, serif" font-size="48" fill="#1e3a5f" font-weight="400">Springer</text>
</svg>
